# xmcd
# 
# Track frame offsets:
#     150
#     23935
#     43333
#     61796
#     82944
#     105224
#     124191
#     140919
#     162045
#     180159
#     203236
# 
# Disc length: 2935
# 
# Revision: 0
# Processed by: cddbd v1.5.2PL0 Copyright (c) Steve Scherf et al.
# Submitted via: fre:ac v1.0.27
# 
DISCID=890b750b
DTITLE=新妻聖子 - アンダンテ
DYEAR=2010
DGENRE=Pop
TTITLE0=愛をとめないで ～Always Loving You～
TTITLE1=道化師のソネット
TTITLE2=The First Star ～上を向いて歩こう～ The First Star ～上を向いて歩こう～
TTITLE3=アンダンテ
TTITLE4=Sisters
TTITLE5=糸
TTITLE6=青いカモメ
TTITLE7=夢の翼
TTITLE8=ヴァージン・ロード
TTITLE9=Time To Say Goodbye
TTITLE10=ひとつ (Studio Live Ver.)
EXTD=
EXTT0=
EXTT1=
EXTT2=
EXTT3=
EXTT4=
EXTT5=
EXTT6=
EXTT7=
EXTT8=
EXTT9=
EXTT10=
PLAYORDER=
